<svg enable-background="new 0 0 92 92" height="92" viewBox="0 0 92 92" width="92" xmlns="http://www.w3.org/2000/svg"><path d="m60 60.7v18.3c0 2.2-1.6 4-3.8 4h-52.2c-2.2 0-4-1.8-4-4v-66c0-2.2 1.8-4 4-4h52.2c2.2 0 3.8 1.8 3.8 4v18.3c0 2.2-1.8 4-4 4s-4-1.8-4-4v-14.3h-44v58h44v-14.3c0-2.2 1.8-4 4-4s4 1.8 4 4zm30.8-17.7-15.6-15.8c-1.6-1.6-4.1-1.6-5.7 0s-1.6 4.1 0 5.7l8.9 9-48.5.1c-2.2 0-4 1.8-4 4s1.8 4 4 4l48.5-.1-8.9 9c-1.6 1.6-1.5 4.1 0 5.7.8.8 1.8 1.2 2.8 1.2s2.1-.4 2.8-1.2l15.7-15.8c1.6-1.7 1.6-4.2 0-5.8z"/></svg>